<?xml version="1.0" standalone="no"?><!DOCTYPE svg PUBLIC "-//W3C//DTD SVG 1.1//EN" "http://www.w3.org/Graphics/SVG/1.1/DTD/svg11.dtd"><svg t="1698760175642" class="icon" viewBox="0 0 1024 1024" version="1.1" xmlns="http://www.w3.org/2000/svg" p-id="1566" xmlns:xlink="http://www.w3.org/1999/xlink" width="200" height="200"><path d="M431.5136 662.528a15.36 15.36 0 0 0-21.7088 0 15.36 15.36 0 0 0 0 21.7088 145.408 145.408 0 0 0 204.8 0 15.36 15.36 0 0 0 0-21.7088 15.36 15.36 0 0 0-21.7088 0 114.688 114.688 0 0 1-160.9728 0zM354.7136 425.1648a78.2336 78.2336 0 0 0-78.2336 78.2336 15.36 15.36 0 0 0 30.72 0 47.5136 47.5136 0 0 1 95.0272 0 15.36 15.36 0 0 0 30.72 0 78.2336 78.2336 0 0 0-78.2336-78.2336zM606.4128 518.7584a15.36 15.36 0 0 0 15.36-15.36 47.5136 47.5136 0 0 1 95.0272 0 15.36 15.36 0 0 0 30.72 0 78.2336 78.2336 0 0 0-156.4672 0 15.1552 15.1552 0 0 0 15.36 15.36z" fill="#030F09" p-id="1567"></path><path d="M904.6016 521.0112a391.5776 391.5776 0 0 0-327.68-373.5552 15.5648 15.5648 0 0 0-6.144 0 94.0032 94.0032 0 0 0-8.8064-34.816 111.8208 111.8208 0 0 0-76.3904-57.1392 15.1552 15.1552 0 0 0-18.432 11.6736 15.36 15.36 0 0 0 11.6736 18.2272 83.968 83.968 0 0 1 55.296 40.96 61.44 61.44 0 0 1 5.9392 31.3344A69.2224 69.2224 0 0 1 532.48 182.6816a112.8448 112.8448 0 0 1-61.44 38.0928c-27.2384 10.4448-55.5008 20.48-66.56 47.9232a78.0288 78.0288 0 0 0 5.9392 64.1024 15.36 15.36 0 0 0 13.9264 9.0112 18.0224 18.0224 0 0 0 6.5536-1.4336 15.7696 15.7696 0 0 0 7.3728-20.48 49.5616 49.5616 0 0 1-5.5296-39.3216c6.144-14.7456 26.0096-22.3232 49.152-31.1296a136.3968 136.3968 0 0 0 75.9808-50.7904 95.232 95.232 0 0 0 9.8304-22.7328 11.8784 11.8784 0 0 0 4.7104 1.8432 361.0624 361.0624 0 0 1 301.6704 357.1712v15.36h15.36a47.5136 47.5136 0 1 1 0 95.0272 51.4048 51.4048 0 0 1-15.5648-2.4576l-14.336-4.9152-4.9152 14.336a362.2912 362.2912 0 0 1-685.2608 0l-5.5296-14.336-14.336 4.9152a51.4048 51.4048 0 0 1-15.5648 2.4576 47.5136 47.5136 0 0 1 0-95.0272h15.36v-15.36a360.8576 360.8576 0 0 1 325.632-360.2432 15.1552 15.1552 0 0 0 13.7216-16.7936A14.9504 14.9504 0 0 0 471.04 143.36 391.168 391.168 0 0 0 119.3984 521.0112 78.2336 78.2336 0 0 0 134.5536 675.84h10.6496a392.8064 392.8064 0 0 0 733.5936 0 92.7744 92.7744 0 0 0 10.6496 0 78.2336 78.2336 0 0 0 15.1552-155.0336z" fill="#030F09" p-id="1568"></path></svg>