<?xml version="1.0" standalone="no"?><!DOCTYPE svg PUBLIC "-//W3C//DTD SVG 1.1//EN" "http://www.w3.org/Graphics/SVG/1.1/DTD/svg11.dtd"><svg t="1698846382140" class="icon" viewBox="0 0 1033 1024" version="1.1" xmlns="http://www.w3.org/2000/svg" p-id="3703" xmlns:xlink="http://www.w3.org/1999/xlink" width="201.7578125" height="200"><path d="M928 403.2c-1.536 0-3.008 0.064-4.544 0.128C875.52 222.656 710.912 89.6 515.2 89.6c-42.88 0-84.352 6.4-123.328 18.304 0.96 2.752 1.536 5.632 1.728 8.64 0.064 1.152 0.64 9.728 3.264 21.376 6.08 27.84 23.36 73.536 71.36 79.936 35.968 4.8 63.04 5.76 82.304 5.248 26.24-0.64 38.08-3.968 38.272-4.032 16.768-5.632 34.624 3.584 40.256 20.352 5.568 16.704-3.776 34.944-20.544 40.512-3.136 1.088-23.744 7.296-67.2 7.296-21.44 0-48.384-1.472-81.536-5.888-89.664-11.968-122.56-97.152-129.024-149.44-112.064 54.464-196.416 157.12-226.24 280.896C46.72 413.376 0 460.48 0 518.4c0 58.304 47.296 105.6 105.6 105.6 0.768 0 1.472 0 2.24-0.064C156.864 802.88 320.704 934.4 515.2 934.4c197.952 0 364.16-136.192 409.856-320.064 0.96 0.064 1.984 0.064 2.944 0.064 58.304 0 105.6-47.296 105.6-105.6S986.304 403.2 928 403.2zM284.8 492.8c0-49.472 24.384-89.6 54.4-89.6S393.6 443.328 393.6 492.8s-24.384 89.6-54.4 89.6S284.8 542.272 284.8 492.8z m396.288 229.44c-29.056 52.032-94.08 85.632-165.696 85.632-70.336 0-134.848-32.704-164.416-83.328a31.968 31.968 0 0 1 11.456-43.776c15.296-8.896 34.88-3.776 43.776 11.456 18.048 30.912 61.888 51.648 109.184 51.648 48.064 0 92.16-21.184 109.824-52.8a31.936 31.936 0 0 1 43.52-12.352c15.424 8.576 20.928 28.096 12.352 43.52zM697.6 582.4c-30.016 0-54.4-40.128-54.4-89.6s24.384-89.6 54.4-89.6 54.4 40.128 54.4 89.6-24.384 89.6-54.4 89.6z" fill="#666666" p-id="3704"></path></svg>