<?xml version="1.0" standalone="no"?><!DOCTYPE svg PUBLIC "-//W3C//DTD SVG 1.1//EN" "http://www.w3.org/Graphics/SVG/1.1/DTD/svg11.dtd"><svg t="1698758904481" class="icon" viewBox="0 0 1024 1024" version="1.1" xmlns="http://www.w3.org/2000/svg" p-id="6423" xmlns:xlink="http://www.w3.org/1999/xlink" width="200" height="200"><path d="M475.9 957.1c-77 0-174-35.1-225.1-56-18.8-7.7-40.4-12.9-53.8-12.9H79.2c-57 0-78.6-47-79.2-78.6v-173c0-42.6 40.2-65 80.1-68.4L248 568c13.1 0 41.8 7.6 53.6 11.7 40.5 14.1 108.4 36.5 126 42.2 1.1 0.2 2.3 0.5 3.5 0.9 30.6 8.8 39.3 9.5 41.3 9.5H609c17.3 1.3 37.5 4.3 49.2 11.8 18.3 11.7 30.9 27.7 37.2 46.4 63.4-11.9 199.6-37.2 224.6-39.4 67.6-6 92.6 32.6 101.5 66 13.8 51.7-32.4 91.3-81.1 106.2-12.8 5.1-357.5 133.8-464.5 133.8zM247.3 628.2H82.7c-8.4 0.9-20.5 5.8-22.7 9l0.2 171.8c1 18.9 14.5 18.9 18.9 18.9H197c25.3 0 56.2 9 76.6 17.4 46.9 19.2 135.6 51.5 202.2 51.5 79.8 0 348.4-94.1 445.2-130.4 13.3-4.2 46-19.5 42.2-33.7-4.6-17.2-10.9-24-38-21.6-19.8 1.8-142.9 24.3-231.2 40.9-13.3 36.2-46.9 55.7-71.7 55.7H332.9c-16.6 0-30.1-13.5-30.1-30.1s13.5-30.1 30.1-30.1h289.5c-0.7 0 17.3-4.5 17.3-28.9 0-6.4-1.5-15.8-14.1-24-1.1-0.1-11.9-1.8-19-2.3l-134.3 0.1c-11.6 0-28.9-3.5-57.9-11.9 2 0.5 4 0.8 6.3 0.7-2.3-0.3-4.9-0.8-7.9-1.5l-0.2 0.5c-1.2-0.4-2.4-0.9-3.6-1.4-20.6-5.2-57.1-17.9-127.5-42.5-10.6-3.5-29.4-7.8-34.2-8.1z" fill="" p-id="6424"></path><path d="M546.4 578.2c-2.8 0-5.6-0.4-8.4-1.2-120.8-35-282.5-194.5-303.6-299.6-12.1-60.3-1.5-118.5 29.9-163.7 29.6-42.7 75.6-71 129.5-79.7 74.3-12 124.7 23.7 152.7 53.4 27.9-29.4 78-64.8 152.4-53.4 54 8.4 100 36.4 129.6 78.7 31.6 45.3 42.2 103.8 29.9 164.8C837.2 382.4 675.5 542 554.7 577c-2.7 0.8-5.5 1.2-8.3 1.2zM421.8 91.9c-5.9 0-12 0.5-18.5 1.5-37.6 6.1-69.4 25.5-89.6 54.6-22 31.7-29.2 73.4-20.3 117.6 14.9 74.3 148.3 215.3 252.9 250.9 104.6-35.6 238-176.6 252.9-250.9 9-44.7 1.8-86.8-20.3-118.5-20-28.7-51.8-47.8-89.4-53.6-76.7-12.1-115.2 55.1-116.8 57.9-5.3 9.5-15.4 15.5-26.3 15.5h-0.2c-11-0.1-21.1-6-26.3-15.7-1.4-2.5-33.8-59.3-98.1-59.3z" fill="" p-id="6425"></path></svg>