<?xml version="1.0" standalone="no"?><!DOCTYPE svg PUBLIC "-//W3C//DTD SVG 1.1//EN" "http://www.w3.org/Graphics/SVG/1.1/DTD/svg11.dtd"><svg t="1698845956242" class="icon" viewBox="0 0 1024 1024" version="1.1" xmlns="http://www.w3.org/2000/svg" p-id="2585" xmlns:xlink="http://www.w3.org/1999/xlink" width="200" height="200"><path d="M796.3 231.1l-2-2c-155.9-156.3-408.9-155.9-565.2 0-156.3 155.9-155.9 409.4 0 565.4C304.2 870 405.7 912 512.1 912h298.2c16.8 0 30.8-13.6 30.8-30.8V739.3c22-32 39.2-66.4 51.6-103.2 45.9-142.3 8.7-298.6-96.4-405zM477.7 672.9l24.4-129.5H389.8L365 672.9h-66l58.8-308.3h66L400.9 485h112.7l23.2-120.3h66L544 672.9h-66.3z m191.1 0h-66L645.6 449h66l-42.8 223.9z m45.5-261.5c-7.6 7.2-17.6 10.8-27.6 10-16.8 0.8-31.2-12-32-28.8v-3.2c0-10 4-19.6 11.2-26.8 7.2-7.2 16.8-10.8 26.8-10.8 17.2-1.2 32 12 33.2 29.2v3.2c0 10-4.4 20-11.6 27.2z m0 0" p-id="2586"></path></svg>